<svg width="40" height="40" fill="none" class="Gcv8A_"><g clipPath="url(#clip0)"><path
      fillRule="evenodd"
      clipRule="evenodd"
      d="M18 0H0v18h18V0zM3 15V3h12v12H3zM18 22H0v18h18V22zm-3 15H3V25h12v12zM40 0H22v18h18V0zm-3 15H25V3h12v12z"
      fill="#EE4D2D"
    /><path d="M37 37H22.5v3H40V22.5h-3V37z" fill="#EE4D2D" /><path
      d="M27.5 32v-8h-3v8h3zM33.5 32v-8h-3v8h3zM6 6h6v6H6zM6 28h6v6H6zM28 6h6v6h-6z"
      fill="#EE4D2D"
    /><path fill="#fff" d="M-4.3 4l44 43.9-22.8 22.7-43.9-44z" /></g><defs><clipPath id="clip0"><path
        fill="#fff"
        d="M0 0h40v40H0z"
      /></clipPath></defs></svg>
